<svg width="264" height="73" viewBox="0 0 264 73" fill="none" xmlns="http://www.w3.org/2000/svg">
<g clip-path="url(#clip0_1577_9404)">
<g clip-path="url(#clip1_1577_9404)">
<g clip-path="url(#clip2_1577_9404)">
<g clip-path="url(#clip3_1577_9404)">
<g clip-path="url(#clip4_1577_9404)">
<g clip-path="url(#clip5_1577_9404)">
<path d="M83.8407 54.5069H79.8361V37.9538H61.2883V54.5069H57.231V17.9102H61.2883V34.3047H79.8361V17.9102H83.8407V54.5069ZM90.6907 41.2327C90.6907 36.4025 91.5514 32.912 93.2726 30.7613C94.9939 28.6107 97.899 27.5353 101.988 27.5353C106.084 27.5353 108.982 28.6107 110.682 30.7613C112.389 32.912 113.243 36.4025 113.243 41.2327C113.243 46.0629 112.435 49.5709 110.819 51.7569C109.203 53.9428 106.253 55.0358 101.967 55.0358C97.6812 55.0358 94.7305 53.9428 93.1146 51.7569C91.4987 49.5709 90.6907 46.0629 90.6907 41.2327ZM94.748 41.148C94.748 45.0122 95.2117 47.7199 96.1391 49.2713C97.0735 50.8226 99.0232 51.5982 101.988 51.5982C104.96 51.5982 106.902 50.8296 107.816 49.2924C108.729 47.7623 109.186 45.058 109.186 41.1798C109.186 37.3015 108.676 34.629 107.658 33.1623C106.639 31.7027 104.749 30.9729 101.988 30.9729C99.2339 30.9729 97.337 31.7027 96.2972 33.1623C95.2644 34.629 94.748 37.2909 94.748 41.148ZM123.624 33.0354V54.5069H119.672V28.0642H123.571V29.9152C126.416 28.3286 129.139 27.5353 131.738 27.5353C135.251 27.5353 137.612 28.4873 138.82 30.3911C140.035 32.295 140.643 35.6797 140.643 40.5451V54.5069H136.744V40.6509C136.744 36.9842 136.382 34.4704 135.659 33.1094C134.942 31.7556 133.407 31.0786 131.053 31.0786C129.929 31.0786 128.742 31.2444 127.491 31.5758C126.248 31.9142 125.292 32.2421 124.625 32.5594L123.624 33.0354ZM165.872 51.228L167.4 51.0694L167.506 54.1896C163.501 54.7537 160.076 55.0358 157.231 55.0358C153.437 55.0358 150.75 53.9322 149.169 51.7251C147.588 49.5251 146.798 46.0981 146.798 41.4442C146.798 32.1716 150.469 27.5353 157.81 27.5353C161.358 27.5353 164.011 28.5296 165.767 30.5181C167.523 32.5136 168.402 35.6444 168.402 39.9105L168.191 42.925H150.802C150.802 45.8513 151.329 48.0196 152.383 49.4299C153.437 50.8402 155.274 51.5453 157.895 51.5453C160.508 51.5453 163.168 51.4396 165.872 51.228ZM150.75 39.7519H164.45C164.45 36.5082 163.933 34.2165 162.901 32.8768C161.861 31.537 160.175 30.8671 157.842 30.8671C155.503 30.8671 153.746 31.5722 152.573 32.9825C151.392 34.3928 150.785 36.6493 150.75 39.7519ZM182.839 31.0786C179.01 31.0786 177.096 32.4184 177.096 35.0979C177.096 36.3319 177.535 37.2028 178.413 37.7105C179.291 38.2252 181.294 38.7541 184.42 39.2971C187.547 39.8471 189.76 40.6157 191.059 41.6029C192.359 42.5901 193.009 44.441 193.009 47.1558C193.009 49.8706 192.141 51.8626 190.406 53.1319C188.664 54.4012 186.124 55.0358 182.787 55.0358C180.609 55.0358 178.044 54.789 175.094 54.2954L173.513 54.031L173.724 50.5934C177.728 51.1928 180.749 51.4924 182.787 51.4924C184.824 51.4924 186.38 51.1646 187.455 50.5088C188.523 49.86 189.057 48.7671 189.057 47.2299C189.057 45.6997 188.6 44.6596 187.687 44.1096C186.774 43.5667 184.771 43.0484 181.68 42.5548C178.589 42.0612 176.393 41.3384 175.094 40.3865C173.794 39.4346 173.144 37.6717 173.144 35.0979C173.144 32.5242 174.05 30.6203 175.863 29.3863C177.668 28.1523 179.924 27.5353 182.629 27.5353C184.771 27.5353 187.459 27.7821 190.691 28.2757L192.166 28.5401L192.061 31.9248C188.161 31.3607 185.088 31.0786 182.839 31.0786ZM212.716 28.0642V31.5017H204.338V44.1414C204.338 47.1735 204.556 49.1655 204.991 50.1174C205.434 51.0694 206.481 51.5453 208.132 51.5453L212.821 51.228L213.085 54.5069C210.731 54.8947 208.94 55.0887 207.71 55.0887C204.97 55.0887 203.073 54.4188 202.019 53.079C200.966 51.7393 200.439 49.1831 200.439 45.4106V31.5017H196.698V28.0642H200.439V19.9727H204.338V28.0642H212.716ZM234.004 49.5357V28.0642H237.956V54.5069H234.004V52.6559C231.369 54.2425 228.77 55.0358 226.205 55.0358C222.622 55.0358 220.241 54.1015 219.06 52.2328C217.887 50.3642 217.3 46.909 217.3 41.8673V28.0642H221.252V41.8144C221.252 45.6574 221.586 48.2312 222.253 49.5357C222.921 50.8402 224.431 51.4924 226.785 51.4924C227.944 51.4924 229.121 51.3232 230.315 50.9847C231.51 50.6533 232.423 50.329 233.055 50.0117L234.004 49.5357ZM253.806 31.0786C249.977 31.0786 248.062 32.4184 248.062 35.0979C248.062 36.3319 248.501 37.2028 249.38 37.7105C250.258 38.2252 252.26 38.7541 255.386 39.2971C258.513 39.8471 260.726 40.6157 262.026 41.6029C263.325 42.5901 263.975 44.441 263.975 47.1558C263.975 49.8706 263.108 51.8626 261.372 53.1319C259.63 54.4012 257.09 55.0358 253.753 55.0358C251.575 55.0358 249.011 54.789 246.06 54.2954L244.479 54.031L244.69 50.5934C248.695 51.1928 251.716 51.4924 253.753 51.4924C255.79 51.4924 257.347 51.1646 258.422 50.5088C259.489 49.86 260.023 48.7671 260.023 47.2299C260.023 45.6997 259.567 44.6596 258.653 44.1096C257.74 43.5667 255.738 43.0484 252.646 42.5548C249.555 42.0612 247.36 41.3384 246.06 40.3865C244.76 39.4346 244.11 37.6717 244.11 35.0979C244.11 32.5242 245.017 30.6203 246.829 29.3863C248.635 28.1523 250.89 27.5353 253.595 27.5353C255.738 27.5353 258.425 27.7821 261.657 28.2757L263.132 28.5401L263.027 31.9248C259.128 31.3607 256.054 31.0786 253.806 31.0786Z" fill="#757575"/>
</g>
</g>
</g>
</g>
<g clip-path="url(#clip6_1577_9404)">
<g clip-path="url(#clip7_1577_9404)">
<path d="M24.2448 0C24.2448 15.0611 0 31.9837 0 48.6664C0 56.8886 4.06269 64.1581 10.2829 68.5634C10.2829 53.5016 34.5277 36.5797 34.5277 19.897C34.5277 11.674 30.465 4.40533 24.2448 0Z" fill="#FBA72E"/>
<path d="M42.7452 27.9727C39.3215 43.2744 18.9917 58.6282 18.9917 72.42C20.6831 72.7969 22.4399 73.0002 24.2448 73.0002C37.6345 73.0002 48.4896 62.1061 48.4896 48.6667C48.4896 43.0382 46.2149 35.5773 42.7452 27.9727Z" fill="#FBA72E"/>
</g>
</g>
</g>
</g>
<defs>
<clipPath id="clip0_1577_9404">
<rect width="264" height="73" fill="white"/>
</clipPath>
<clipPath id="clip1_1577_9404">
<rect width="264" height="73" fill="white"/>
</clipPath>
<clipPath id="clip2_1577_9404">
<rect width="206.765" height="37.1785" fill="white" transform="translate(57.2202 17.9102)"/>
</clipPath>
<clipPath id="clip3_1577_9404">
<rect width="206.765" height="37.1785" fill="white" transform="translate(57.2202 17.9102)"/>
</clipPath>
<clipPath id="clip4_1577_9404">
<rect width="206.765" height="37.1785" fill="white" transform="translate(57.2202 17.9102)"/>
</clipPath>
<clipPath id="clip5_1577_9404">
<rect width="206.765" height="37.1785" fill="white" transform="translate(57.2202 17.9102)"/>
</clipPath>
<clipPath id="clip6_1577_9404">
<rect width="48.4896" height="73" fill="white"/>
</clipPath>
<clipPath id="clip7_1577_9404">
<rect width="48.4896" height="73" fill="white"/>
</clipPath>
</defs>
</svg>
